<svg width="58" height="58" viewBox="0 0 58 58" fill="none" xmlns="http://www.w3.org/2000/svg">
<rect x="0.5" y="0.5" width="57" height="57" rx="5.5" fill="url(#paint0_linear_92_47219)"/>
<rect x="0.5" y="0.5" width="57" height="57" rx="5.5" fill="url(#paint1_linear_92_47219)" fill-opacity="0.2"/>
<rect x="0.5" y="0.5" width="57" height="57" rx="5.5" stroke="url(#paint2_linear_92_47219)"/>
<path d="M26.2124 34.9758H35.4569C36.6116 34.9758 37.0234 34.6502 37.0234 34.0133C37.0234 32.146 34.648 29.5695 30.831 29.5695C27.0213 29.5695 24.6459 32.146 24.6459 34.0133C24.6459 34.6502 25.0577 34.9758 26.2124 34.9758ZM30.8383 28.274C32.4196 28.274 33.7801 26.8844 33.7801 25.0751C33.7801 23.2875 32.4122 21.963 30.8383 21.963C29.2644 21.963 27.8965 23.3164 27.8965 25.0896C27.8965 26.8844 29.2571 28.274 30.8383 28.274ZM18.2695 34.9758H23.8589C23.094 33.883 24.0281 31.6829 25.6093 30.4815C24.7929 29.9459 23.7412 29.5478 22.3659 29.5478C19.0491 29.5478 16.9751 31.9579 16.9751 33.9626C16.9751 34.614 17.3428 34.9758 18.2695 34.9758ZM22.3733 28.4405C23.7412 28.4405 24.9327 27.2246 24.9327 25.6541C24.9327 24.098 23.7339 22.9473 22.3733 22.9473C21.0054 22.9473 19.7992 24.127 19.8066 25.6686C19.8066 27.2246 20.998 28.4405 22.3733 28.4405ZM36.2806 28.0569C36.5307 28.2234 36.8763 28.1727 37.0749 27.8904C37.6412 27.1594 37.9796 26.0811 37.9796 24.9738C37.9796 23.8664 37.6412 22.7953 37.0749 22.0571C36.8763 21.7748 36.5307 21.7242 36.2806 21.8906C35.9865 22.0933 35.935 22.4552 36.1703 22.7519C36.5969 23.3309 36.8396 24.1342 36.8396 24.9738C36.8396 25.8133 36.5895 26.6094 36.1703 27.1956C35.9424 27.4996 35.9865 27.847 36.2806 28.0569ZM39.0092 29.9459C39.2813 30.1268 39.6196 30.0617 39.8181 29.7867C40.7595 28.5129 41.3111 26.7614 41.3111 24.9738C41.3111 23.1861 40.7669 21.4202 39.8181 20.1609C39.6196 19.8859 39.2813 19.8207 39.0092 20.0017C38.7371 20.1826 38.6929 20.5228 38.9062 20.8195C39.7079 21.9341 40.1712 23.4322 40.1712 24.9738C40.1712 26.5153 39.6931 28.0062 38.9062 29.128C38.7003 29.4248 38.7371 29.7649 39.0092 29.9459Z" fill="#9EFF00"/>
<defs>
<linearGradient id="paint0_linear_92_47219" x1="29" y1="0" x2="29" y2="58" gradientUnits="userSpaceOnUse">
<stop stop-color="#242424"/>
<stop offset="1" stop-color="#242424" stop-opacity="0"/>
</linearGradient>
<linearGradient id="paint1_linear_92_47219" x1="134.455" y1="-57.6705" x2="5.45078e-06" y2="58" gradientUnits="userSpaceOnUse">
<stop offset="0.224072" stop-color="#9EFF00"/>
<stop offset="0.687143" stop-color="#9EFF00" stop-opacity="0"/>
</linearGradient>
<linearGradient id="paint2_linear_92_47219" x1="29" y1="0" x2="29" y2="58" gradientUnits="userSpaceOnUse">
<stop stop-color="#2E2E2E"/>
<stop offset="1" stop-color="#2E2E2E" stop-opacity="0"/>
</linearGradient>
</defs>
</svg>
