<svg width="58" height="58" viewBox="0 0 58 58" fill="none" xmlns="http://www.w3.org/2000/svg">
<rect x="0.5" y="0.5" width="57" height="57" rx="5.5" fill="url(#paint0_linear_92_47287)"/>
<rect x="0.5" y="0.5" width="57" height="57" rx="5.5" fill="url(#paint1_linear_92_47287)" fill-opacity="0.2"/>
<rect x="0.5" y="0.5" width="57" height="57" rx="5.5" stroke="url(#paint2_linear_92_47287)"/>
<path d="M21.7445 34.0844L22.0105 35.1482C22.3474 36.5313 23.0832 37.2405 24.546 37.2405H34.0939C35.5656 37.2405 36.2925 36.549 36.6383 35.1482L36.9043 34.0844H21.7445ZM21.452 32.8698H37.2057L38.8723 26.0436L38.1454 25.6269L34.0585 28.6056C33.757 28.8184 33.5532 28.7386 33.3847 28.4993L29.5372 22.6836L29.1116 22.6659L25.2286 28.5258C25.0779 28.7563 24.9006 28.8273 24.5992 28.6145L20.5921 25.689L19.741 25.9106L21.452 32.8698ZM20.069 27.8166C21.2392 27.8166 22.179 26.868 22.179 25.689C22.179 24.5365 21.2392 23.579 20.069 23.579C18.8988 23.579 17.9502 24.5276 17.9502 25.689C17.9502 26.868 18.9076 27.8166 20.069 27.8166ZM29.3244 24.1287C30.4858 24.1287 31.4343 23.1801 31.4343 22.0098C31.4343 20.8574 30.4858 19.8999 29.3244 19.8999C28.1453 19.8999 27.2056 20.8485 27.2056 22.0098C27.2056 23.1801 28.1542 24.1287 29.3244 24.1287ZM38.5709 27.8166C39.7323 27.8166 40.6897 26.868 40.6897 25.689C40.6897 24.5276 39.7412 23.579 38.5709 23.579C37.4096 23.579 36.461 24.5365 36.461 25.689C36.461 26.868 37.4096 27.8166 38.5709 27.8166Z" fill="#9EFF00"/>
<defs>
<linearGradient id="paint0_linear_92_47287" x1="29" y1="0" x2="29" y2="58" gradientUnits="userSpaceOnUse">
<stop stop-color="#242424"/>
<stop offset="1" stop-color="#242424" stop-opacity="0"/>
</linearGradient>
<linearGradient id="paint1_linear_92_47287" x1="134.455" y1="-57.6705" x2="5.45078e-06" y2="58" gradientUnits="userSpaceOnUse">
<stop offset="0.224072" stop-color="#9EFF00"/>
<stop offset="0.687143" stop-color="#9EFF00" stop-opacity="0"/>
</linearGradient>
<linearGradient id="paint2_linear_92_47287" x1="29" y1="0" x2="29" y2="58" gradientUnits="userSpaceOnUse">
<stop stop-color="#2E2E2E"/>
<stop offset="1" stop-color="#2E2E2E" stop-opacity="0"/>
</linearGradient>
</defs>
</svg>
