<svg width="58" height="58" viewBox="0 0 58 58" fill="none" xmlns="http://www.w3.org/2000/svg">
<rect x="0.5" y="0.5" width="57" height="57" rx="5.5" fill="url(#paint0_linear_92_47148)"/>
<rect x="0.5" y="0.5" width="57" height="57" rx="5.5" fill="url(#paint1_linear_92_47148)" fill-opacity="0.2"/>
<rect x="0.5" y="0.5" width="57" height="57" rx="5.5" stroke="url(#paint2_linear_92_47148)"/>
<path fill-rule="evenodd" clip-rule="evenodd" d="M38.315 17.625C37.9083 17.625 37.5108 17.7454 37.1724 17.9709L31.6702 21.6391C30.2596 22.5795 28.9775 23.6892 27.8504 24.9395C30.1408 26.0076 31.9923 27.8591 33.0603 30.1494C34.3106 29.0223 35.4204 27.7402 36.3607 26.3297L40.0289 20.8274C40.2545 20.4891 40.3748 20.0915 40.3748 19.6848C40.3748 18.5472 39.4526 17.625 38.315 17.625ZM29.3243 32.8186C30.0616 32.409 30.7707 31.955 31.4478 31.46C30.5598 29.2235 28.7763 27.44 26.5399 26.552C26.0448 27.2292 25.5908 27.9382 25.1812 28.6755L24.8795 29.2186C26.7607 29.7567 28.2431 31.2392 28.7812 33.1204L29.3243 32.8186ZM23.3123 30.625C21.0686 30.625 19.2498 32.4438 19.2498 34.6875C19.2498 35.585 18.5223 36.3125 17.6248 36.3125C17.588 36.3125 17.5514 36.3113 17.515 36.3089C17.2159 36.2891 16.9301 36.4357 16.7717 36.6902C16.6132 36.9447 16.6078 37.2658 16.7576 37.5255C17.7389 39.2269 19.5785 40.375 21.6873 40.375C24.8285 40.375 27.3748 37.8286 27.3748 34.6875C27.3748 32.4438 25.556 30.625 23.3123 30.625Z" fill="#9EFF00"/>
<defs>
<linearGradient id="paint0_linear_92_47148" x1="29" y1="0" x2="29" y2="58" gradientUnits="userSpaceOnUse">
<stop stop-color="#242424"/>
<stop offset="1" stop-color="#242424" stop-opacity="0"/>
</linearGradient>
<linearGradient id="paint1_linear_92_47148" x1="134.455" y1="-57.6705" x2="5.45078e-06" y2="58" gradientUnits="userSpaceOnUse">
<stop offset="0.224072" stop-color="#9EFF00"/>
<stop offset="0.687143" stop-color="#9EFF00" stop-opacity="0"/>
</linearGradient>
<linearGradient id="paint2_linear_92_47148" x1="29" y1="0" x2="29" y2="58" gradientUnits="userSpaceOnUse">
<stop stop-color="#2E2E2E"/>
<stop offset="1" stop-color="#2E2E2E" stop-opacity="0"/>
</linearGradient>
</defs>
</svg>
