<svg width="58" height="58" viewBox="0 0 58 58" fill="none" xmlns="http://www.w3.org/2000/svg">
<rect x="0.5" y="0.5" width="57" height="57" rx="5.5" fill="url(#paint0_linear_92_47165)"/>
<rect x="0.5" y="0.5" width="57" height="57" rx="5.5" fill="url(#paint1_linear_92_47165)" fill-opacity="0.2"/>
<rect x="0.5" y="0.5" width="57" height="57" rx="5.5" stroke="url(#paint2_linear_92_47165)"/>
<path d="M28.1875 21.7817C28.1875 21.3969 27.9859 21.0492 27.7529 20.743C27.5136 20.4288 27.375 20.056 27.375 19.6562C27.375 18.5344 28.4663 17.625 29.8125 17.625C31.1587 17.625 32.25 18.5344 32.25 19.6563C32.25 20.056 32.1114 20.4288 31.8721 20.743C31.6391 21.0492 31.4375 21.3969 31.4375 21.7817C31.4375 22.1417 31.7383 22.4291 32.0977 22.4077C34.1676 22.2842 36.204 22.0377 38.1999 21.6756C38.4195 21.6357 38.6459 21.688 38.8258 21.8201C39.0057 21.9522 39.1234 22.1526 39.1511 22.3741C39.3938 24.3127 39.5314 26.2837 39.558 28.2812C39.5633 28.678 39.2411 28.9999 38.8442 29C38.4594 29 38.1117 28.7984 37.8055 28.5654C37.4913 28.3261 37.1185 28.1875 36.7187 28.1875C35.5969 28.1875 34.6875 29.2788 34.6875 30.625C34.6875 31.9712 35.5969 33.0625 36.7187 33.0625C37.1185 33.0625 37.4913 32.9239 37.8055 32.6846C38.1117 32.4516 38.4594 32.25 38.8442 32.25C39.1805 32.25 39.4475 32.5335 39.4232 32.8689C39.2947 34.644 39.0783 36.395 38.7785 38.1175C38.7197 38.4553 38.4552 38.7198 38.1174 38.7786C36.1467 39.1216 34.1387 39.3553 32.0999 39.4733C31.7392 39.4942 31.4375 39.2056 31.4375 38.8442C31.4375 38.4594 31.6391 38.1117 31.8721 37.8055C32.1114 37.4913 32.25 37.1185 32.25 36.7188C32.25 35.5969 31.1587 34.6875 29.8125 34.6875C28.4663 34.6875 27.375 35.5969 27.375 36.7188C27.375 37.1185 27.5136 37.4913 27.7529 37.8055C27.9859 38.1117 28.1875 38.4594 28.1875 38.8442C28.1875 39.2359 27.8668 39.5522 27.4752 39.5411C25.7533 39.4923 24.0517 39.361 22.3745 39.151C22.153 39.1233 21.9526 39.0056 21.8205 38.8257C21.6884 38.6457 21.6361 38.4194 21.676 38.1997C21.9932 36.4512 22.2217 34.6716 22.3566 32.8657C22.3815 32.5322 22.1161 32.25 21.7817 32.25C21.3969 32.25 21.0492 32.4516 20.743 32.6846C20.4288 32.9239 20.056 33.0625 19.6562 33.0625C18.5344 33.0625 17.625 31.9712 17.625 30.625C17.625 29.2788 18.5344 28.1875 19.6562 28.1875C20.056 28.1875 20.4288 28.3261 20.743 28.5654C21.0492 28.7984 21.3969 29 21.7817 29C22.1786 29 22.5008 28.6782 22.4954 28.2814C22.4711 26.5175 22.3577 24.7753 22.1594 23.0593C22.1309 22.8129 22.2166 22.5669 22.392 22.3915C22.5674 22.2161 22.8133 22.1304 23.0598 22.1589C24.5139 22.3269 25.9868 22.4341 27.4758 22.4776C27.867 22.489 28.1875 22.173 28.1875 21.7817Z" fill="#9EFF00"/>
<defs>
<linearGradient id="paint0_linear_92_47165" x1="29" y1="0" x2="29" y2="58" gradientUnits="userSpaceOnUse">
<stop stop-color="#242424"/>
<stop offset="1" stop-color="#242424" stop-opacity="0"/>
</linearGradient>
<linearGradient id="paint1_linear_92_47165" x1="134.455" y1="-57.6705" x2="5.45078e-06" y2="58" gradientUnits="userSpaceOnUse">
<stop offset="0.224072" stop-color="#9EFF00"/>
<stop offset="0.687143" stop-color="#9EFF00" stop-opacity="0"/>
</linearGradient>
<linearGradient id="paint2_linear_92_47165" x1="29" y1="0" x2="29" y2="58" gradientUnits="userSpaceOnUse">
<stop stop-color="#2E2E2E"/>
<stop offset="1" stop-color="#2E2E2E" stop-opacity="0"/>
</linearGradient>
</defs>
</svg>
