<svg width="58" height="58" viewBox="0 0 58 58" fill="none" xmlns="http://www.w3.org/2000/svg">
<rect x="0.5" y="0.5" width="57" height="57" rx="5.5" fill="url(#paint0_linear_92_47229)"/>
<rect x="0.5" y="0.5" width="57" height="57" rx="5.5" fill="url(#paint1_linear_92_47229)" fill-opacity="0.2"/>
<rect x="0.5" y="0.5" width="57" height="57" rx="5.5" stroke="url(#paint2_linear_92_47229)"/>
<path d="M28.7642 39.829C28.9376 39.829 29.2085 39.7639 29.4794 39.623C35.6453 36.3937 37.6285 34.7791 37.6285 30.8888V22.718C37.6285 21.6019 37.1516 21.2443 36.2414 20.865C34.9735 20.3448 30.9207 18.8711 29.6636 18.4376C29.371 18.3401 29.0676 18.2859 28.7642 18.2859C28.4608 18.2859 28.1573 18.3509 27.8756 18.4376C26.6077 18.8494 22.5548 20.3557 21.287 20.865C20.3875 21.2334 19.8999 21.6019 19.8999 22.718V30.8888C19.8999 34.7791 21.9914 36.2095 28.049 39.623C28.3307 39.7748 28.5908 39.829 28.7642 39.829ZM23.8769 29.415C23.8769 29.285 23.9419 29.1224 24.0611 28.9816L30.1838 21.2984C30.6497 20.7133 31.43 21.1034 31.1483 21.8294L29.1326 27.2477H32.9146C33.2071 27.2477 33.4239 27.4536 33.4239 27.7462C33.4239 27.8762 33.3589 28.0388 33.2397 28.1796L27.117 35.8628C26.6511 36.4479 25.8817 36.0578 26.1526 35.3426L28.179 29.9135H24.3862C24.1045 29.9135 23.8769 29.7076 23.8769 29.415Z" fill="#9EFF00"/>
<defs>
<linearGradient id="paint0_linear_92_47229" x1="29" y1="0" x2="29" y2="58" gradientUnits="userSpaceOnUse">
<stop stop-color="#242424"/>
<stop offset="1" stop-color="#242424" stop-opacity="0"/>
</linearGradient>
<linearGradient id="paint1_linear_92_47229" x1="134.455" y1="-57.6705" x2="5.45078e-06" y2="58" gradientUnits="userSpaceOnUse">
<stop offset="0.224072" stop-color="#9EFF00"/>
<stop offset="0.687143" stop-color="#9EFF00" stop-opacity="0"/>
</linearGradient>
<linearGradient id="paint2_linear_92_47229" x1="29" y1="0" x2="29" y2="58" gradientUnits="userSpaceOnUse">
<stop stop-color="#2E2E2E"/>
<stop offset="1" stop-color="#2E2E2E" stop-opacity="0"/>
</linearGradient>
</defs>
</svg>
